<svg xmlns="http://www.w3.org/2000/svg" viewBox="0 0 480 360" width="480" height="360" role="img" aria-label="Daily Rewards Draw">
  <!-- Transparent background  edit this file or replace with your own image (PNG/SVG) -->
  <g fill="none" stroke="#e8edda" stroke-opacity="0.85" stroke-width="3" stroke-linejoin="round" stroke-linecap="round">
    <!-- Ticket -->
    <path d="M120 150 h170 a14 14 0 0 1 14 14 v8 a16 16 0 0 0 0 32 v8 a14 14 0 0 1 -14 14 h-170 a14 14 0 0 1 -14 -14 v-8 a16 16 0 0 0 0 -32 v-8 a14 14 0 0 1 14 -14 Z"/>
    <line x1="232" y1="150" x2="232" y2="226" stroke-dasharray="6 10"/>
  </g>
  <g fill="#e2fea5" fill-opacity="0.9">
    <circle cx="170" cy="188" r="10"/>
    <text x="250" y="196" font-family="Arial Black, sans-serif" font-size="28" fill="#e8edda" font-weight="900">$1</text>
  </g>
  <!-- Floating coins -->
  <g fill="none" stroke="#e2fea5" stroke-opacity="0.8" stroke-width="3">
    <circle cx="360" cy="96" r="34"/>
    <circle cx="96" cy="280" r="22"/>
  </g>
  <text x="348" y="106" font-family="Arial Black, sans-serif" font-size="30" fill="#e2fea5" fill-opacity="0.9" font-weight="900">B</text>
</svg>
