<svg xmlns="http://www.w3.org/2000/svg" viewBox="0 0 120 120" width="120" height="120" role="img" aria-label="Blobbie Level 6">
  <!-- Editable Blobbie level character. Swap freely. -->
  <circle cx="60" cy="60" r="54" fill="#f2807d" stroke="#0b0b0b" stroke-width="6"/>
  <g stroke="#0b0b0b" stroke-width="4" stroke-linecap="round" stroke-linejoin="round">
    <path d="M60 28 C40 28 30 44 30 60 C30 82 44 96 60 96 C76 96 90 82 90 60 C90 44 80 28 60 28 Z" fill="#f3c6a3"/>
    <path d="M44 54 q8 -6 16 -2" fill="none"/>
    <path d="M76 54 q-8 -6 -16 -2" fill="none"/>
    <circle cx="50" cy="60" r="3.5" fill="#0b0b0b" stroke="none"/>
    <circle cx="70" cy="60" r="3.5" fill="#0b0b0b" stroke="none"/>
    <path d="M60 70 C50 70 43 74 41 80 C47 86 54 80 60 76 C66 80 73 86 79 80 C77 74 70 70 60 70 Z" fill="#9e3b2e"/>
  </g>
  <!-- bowtie -->
  <g stroke="#0b0b0b" stroke-width="3" fill="#c0392b">
    <path d="M60 100 l-14 -8 0 16 Z"/>
    <path d="M60 100 l14 -8 0 16 Z"/>
    <circle cx="60" cy="100" r="4" fill="#0b0b0b"/>
  </g>
  <g><circle cx="97" cy="95" r="16" fill="#0b0b0b"/><text x="97" y="100" text-anchor="middle" font-family="Arial Black, sans-serif" font-size="13" fill="#fff" font-weight="900">6</text></g>
</svg>
