<svg xmlns="http://www.w3.org/2000/svg" viewBox="0 0 120 120" width="120" height="120" role="img" aria-label="Blobbie Level 10">
  <!-- Editable Blobbie level character (legendary). Swap freely. -->
  <circle cx="60" cy="60" r="54" fill="#ffd64a" stroke="#0b0b0b" stroke-width="6"/>
  <!-- sparkles -->
  <g fill="#fff">
    <path d="M22 30 l2 6 6 2 -6 2 -2 6 -2 -6 -6 -2 6 -2 Z"/>
    <path d="M96 40 l1.5 4.5 4.5 1.5 -4.5 1.5 -1.5 4.5 -1.5 -4.5 -4.5 -1.5 4.5 -1.5 Z"/>
  </g>
  <g stroke="#0b0b0b" stroke-width="4" stroke-linecap="round" stroke-linejoin="round">
    <path d="M60 38 C40 38 30 54 30 70 C30 92 44 104 60 104 C76 104 90 92 90 70 C90 54 80 38 60 38 Z" fill="#f3c6a3"/>
    <path d="M44 66 q8 -6 16 -2" fill="none"/>
    <path d="M76 66 q-8 -6 -16 -2" fill="none"/>
    <circle cx="50" cy="72" r="3.5" fill="#0b0b0b" stroke="none"/>
    <circle cx="70" cy="72" r="3.5" fill="#0b0b0b" stroke="none"/>
    <path d="M60 82 C50 82 43 86 41 92 C47 98 54 92 60 88 C66 92 73 98 79 92 C77 86 70 82 60 82 Z" fill="#9e3b2e"/>
  </g>
  <!-- crown -->
  <g stroke="#0b0b0b" stroke-width="3.5" stroke-linejoin="round" fill="#f8d34e">
    <path d="M38 40 L38 18 L50 30 L60 14 L70 30 L82 18 L82 40 Z"/>
    <circle cx="60" cy="14" r="3" fill="#ef6f6c"/>
  </g>
  <g><circle cx="98" cy="101" r="17" fill="#0b0b0b"/><text x="98" y="106" text-anchor="middle" font-family="Arial Black, sans-serif" font-size="11" fill="#fff" font-weight="900">10</text></g>
</svg>
