<svg xmlns="http://www.w3.org/2000/svg" viewBox="0 0 120 120" width="120" height="120" role="img" aria-label="Blobbie Level 9">
  <!-- Editable Blobbie level character. Swap freely. -->
  <circle cx="60" cy="60" r="54" fill="#ff9ad2" stroke="#0b0b0b" stroke-width="6"/>
  <g stroke="#0b0b0b" stroke-width="4" stroke-linecap="round" stroke-linejoin="round">
    <path d="M60 36 C40 36 30 52 30 68 C30 90 44 104 60 104 C76 104 90 90 90 68 C90 52 80 36 60 36 Z" fill="#f3c6a3"/>
    <path d="M44 64 q8 -6 16 -2" fill="none"/>
    <path d="M76 64 q-8 -6 -16 -2" fill="none"/>
    <circle cx="50" cy="70" r="3.5" fill="#0b0b0b" stroke="none"/>
    <circle cx="70" cy="70" r="3.5" fill="#0b0b0b" stroke="none"/>
    <path d="M60 80 C50 80 43 84 41 90 C47 96 54 90 60 86 C66 90 73 96 79 90 C77 84 70 80 60 80 Z" fill="#9e3b2e"/>
  </g>
  <!-- wizard hat -->
  <g stroke="#0b0b0b" stroke-width="4" stroke-linejoin="round">
    <path d="M60 2 L40 42 L80 42 Z" fill="#5a3ea8"/>
    <path d="M36 42 L84 42 L84 48 L36 48 Z" fill="#5a3ea8"/>
    <text x="60" y="30" text-anchor="middle" font-family="Arial" font-size="14" fill="#f8d34e">&</text>
  </g>
  <g><circle cx="98" cy="101" r="16" fill="#0b0b0b"/><text x="98" y="106" text-anchor="middle" font-family="Arial Black, sans-serif" font-size="13" fill="#fff" font-weight="900">9</text></g>
</svg>
